<?xml version="1.0" encoding="UTF-8"?><svg xmlns="http://www.w3.org/2000/svg" viewBox="0 0 213 228.37"><defs><style>.e{fill:#3f5f75;}.e,.f{stroke-width:0px;}.f{fill:#0a2639;}</style></defs><g id="a"><path class="f" d="m7,176l203-44-51,35,3-10c-13.15,1.61-26.31,3.23-39.46,4.84-4.5.55-9,1.1-13.5,1.66-4.41.54-8.81,1.08-13.22,1.62-29.6,3.63-59.21,7.26-88.81,10.89Z"/><polygon class="f" points="74 179 123.35 161.74 95.81 165.12 74 179"/></g><g id="b"><path class="f" d="m158.15,94.99c.39-.68.47-.96.61-1.36.07-.2.16-.48.2-.85.01-.21.02-.41.03-.62-.14.1-.28.2-.42.3-.2.13-.48.27-.83.39-.37.12-.69.15-.93.16h-2.61c-3.08,0-4.92,3.44-3.21,6l1,2s.09.76-1,1c-.17.04.17-.05,0,0h-.32c-.56,0-1.12.13-1.62.39-.85.44-1.77,1.09-2.43,1.53l-1.08.72c-.36.26-.72.51-1.08.77l-3.47,2.6c-.08.06.8-.38.91-.39l10.09.39c.09,0,3.07-.93,3-1l1-1c-.37-.37,0,0-.76-1.47l.56-1.13c.12-.25.37-.4.65-.4h2.27c.16,0,.28,0,.29-.28v-.72c-.07-2.53,0-4-.68-5.57-.29-.69-.42-1.03-.18-1.44Z"/><path class="f" d="m159,132c0-1-.98-4.87-1-5l-1-6c-.07-.4.03-3.68,0-4,0-.38,0,0,.09-2.27l.91-3.73s0-1-.7-2.41c-.11-.22-1.21-2.43-1.3-2.59-.6-1.27-.64-2-1-2-2.91-.07-3.16,3.16-5.1,3.16-.53,0-1.02-.07-1.46-.2-.12,0-.23.02-.35.02-1.61,0-5.35-.43-7.1,1.01-2.46,2.04-3.46,3.46-7,7-1,1-3.03,3.1-4,5-.09.17-.39.8-1,1-.4.13-.5,0-1,0-1,0-1.18.49-2,1-.57.36-5,0-7,1,0,0,.05.02,0,0l-1.96-.96c-3.04-2.04-3.03-2.03-3.04-2.04-5.68-4.03-4.92-3.2-6-4,0,0-1.15-.67-2-1-.06-.02-.94.03-1,0-2-1,1,1-1,0-1.26-.63-.12-.71-1-1-.22-.03.34.03.12,0-.54-.01-2.82.13-4.12,0-2.07-.2-2.87.25-4.69,1.26-1.31.74-4.31,2.74-6.31,4.74,0,0-3,3-1,1l-2,2s-4.97,5.97-5,6c-.18.22-1.74,1.9-2,2-.85.34-1.64.56-2,1-.57.69-.08,1-1,1h-6s-2.1-1.24-3-2q-1-1-2.11-1.88l-2.89-2.12c-.55-.69-1.16-.51-1.56-.28-.41.23-.9.32-1.35.17-.72-.25-1.65-.8-2.78-1.31-.27-.12-.58-.18-.87-.15-1.24.14-1.6-.43-3.44-.43h0c-1,0-1.92.16-3,1-9,7-12,13-12,14-.19,1.98-1.13,8.68-1,9.99,0,0,0,0,0,0v1c0,.56.31,2.03.67,2.23,1.33.77,2.97.39,3.33-.23.06-.1.13-.28.1-.57-.03-.29.05-.58.26-.78.36-.36.36-.94,0-1.29l-.35-.35h-1c-.23-.23-.09-.73,0-1,1-3,1.84-4.02,2-6,.01-.17.02-.33.02-.5,0-.45.2-.88.51-1.21.71-.75,2.01-1.84,3.47-3.29.51-.51.93-1.05,1-1,1.01.69.14,5.49-2,8-.42.49-.8.83-1,1,.06.04,1,1,2,1s-1,3-1,3c-1.32,2.2-2,4-4,9-.47,1.19-.68,2-1,2-2,0-9.54,9.94-9,11,.39.76,4.95,1.05,7-1,3-3,4.12-5.84,7-8,3.8-2.85,3.09-2.99,7.28-8.12.46-.56,1.03-1.1,1.72-.88,2.06.65,1.93,1,8,1h1c-4.47,8.86-5.09,11.31-4,12,.92.59,2.72-.52,5.96-1.98.02-.01,1.03-.99,1.04-1.02.21-.6,1.67-8.27,3-12,.41-1.14.11-1.36-1.01-1.81-2.82-1.13-7.65-3.06-7.97-3.19-.01,0-1,0-1.02,0h-3c.6-.15,4-1,4-1,.14-.49.56-2.12,1-3,0,0,2-3,3-6l3.68.92c.21.06.43.12.64.19l2.31.77c.27.09.56.12.84.06.47-.09,1.31-.33,2.53-.94,2-1,.9-.45,2-1,1-.5,1.79-.96,3-1,.98-.03,1.3.29,2,0,.96-.4.78-.57,1-1,.33-.65,1.81-1.52,2-2,.09-.22.83-.83,1-1,.25-.24,0-1,1-2l3-3c2-2,3.14-2,4-2l-1,2s-1.53,3.18-2,4c-.04.07-1.95,2.93-2,3,.33.26,1,0,2.28.64l.72.36-.9.9c-.06.07-.11.13-.17.2-1.17,1.57-2.9,3.94-4.92,6.9-3.18,4.65-2.28,4.71-4,6-4,3-6.28,5.38-9,10l-.4.68c-3.6,6.32.35,3,1.88,2.74l3.18-.52c.55-.09,1.37-.35,1.89-.6.26-.13.48-.33.64-.57l3.61-5.44c.11-.16.24-.31.4-.43l3.71-2.78c.07-.06.13-.11.2-.17l3.8-3.8c.07-.08.13-.15.2-.23l4.89-5.69c.58-.67.3-.7,1.02-.19,5.6,3.97,6.13,3.07,8,4,0,0,1.91.8,2,1-2.92,3.17-5.1,8.92-4,10,.48.47,1.8.45,5.43-1.66.38-.22.66-.58.78-1,.58-1.94,2.61-6.83,3.79-9.34.3-.63-5.46-5.57-6-6l-3-2-1.12-.8c.06-.32.12-.63.18-.95.31-.08.63-.17.94-.25.21,0,.09.02.26-.83.41-2.07,3.74-7.17,5.74-10.17l1.99,1s0,0,.01,0l1.61.81c3.38,1.19.38.19,3.38,1.19l3,1c.53.19.87.05,1,0l4-1c.05-.01.02-.01.08-.03l2.05-.68c.88-.29,1.41.43,1.88.71h1c.34,0,.64.1.92.11.62,0,.75-.59,1.08-1.11,1.03-1.65,5.31-6.16,9-8,2-1-.51,3.04-1.2,4.87l-.8,2.13c-.16.44,0,0,1,0s1,0,0,1c-2.59,2.59-2.97,4.2-5,8-.64,1.19-2.23,5.37-2.77,6.52-.15.31-.39.56-.7.72l-1.29.64c-.15.08-.28.19-.42.29-6.81,4.83-9.81,11.83-6.81,9.83,1.06-.71,2.71,1.2,4,1,3.71-.59,3.79-3.91,9-9,2.45-2.4,5.62-5.36,9-9,.76-.82,1-1,1-1,.39.44,2.53,2.91,6,5,.27.16,1,0,0,1-3.9,3.83-5.56,7.16-5,8,.44.65,3.23-1.6,6.37-2.76.33-.28.63-.54.96-.82l3.19-5.58q.48-.85.06-1.72c-.19-.37-.38-.75-.57-1.13-1.4-2.68-3.46-5.85-5-8h-.95s-2.05,0-2.05,0l3.03-.76-.03-.24c-.01-1.08,2.62-4.9,3-5,.09-.02,0,.41,0,1,.02,2.14,1.43,4.04,2,5,.46.76.44.75,1,2,.19.44-.89.35-1,1-.16,1.01-.24,1.76,0,2,2,2,2,1,4,1,.32,0,0-1.6,0-2Z"/><path class="f" d="m110.6,113.22c-.3-2.51-.38-3.98-1.2-5.48-.27-.5-.43-.8-.4-1.11.01-.15.06-.25.12-.39.26-.62.59-1.38.59-2.13,0-.16-.01-.4-.09-.71-.12.12-.24.24-.36.36-.18.14-.45.32-.78.46-.35.15-.67.22-.91.25l-2.59.25c-3.07.29-4.57,3.89-2.62,6.28l1.19,1.9s.15.73-.86,1.07c0,0,0,0-.04.02-.07.02-.63.02-.01,0l-.31.03c-.56.05-1.1.23-1.57.53-.42.27-.85.59-1.25.92,1.36,1.06,3.66.83,3.51,2.54l4-1c.09-.01,1.07-.94,1-1-.57-.47-.77-.25-.51-.94l.06-.14c.1-.26.18-.89.45-.92l2.41.24c.16-.02.28-.03.26-.31l-.08-.71Z"/><path class="f" d="m64.25,123.65c-.3-2.51-.38-3.98-1.2-5.48-.27-.5-.43-.8-.4-1.11,0-.12.05-.21.08-.31.3-.81.57-1.58.6-2.37,0-.1,0-.27-.02-.49-.13.11-.27.21-.4.32-.19.14-.46.3-.79.44-.35.14-.67.22-.91.25l-2.59.25c-3.07.29-4.57,3.89-2.62,6.28l1.19,1.9s.15.73-.86,1.07c0,0,0,0-.04.02-.07.02-.05.01-.01,0l-.31.03c-3.97.56-3.32.43-4.97.56.13.45.12.87.14,1.34,1.92.16,4.99-.72,4.86.66l.17.06c.19-.02.38-.03.58-.03,1.09,0,1.99.29,2.72.77.61-.28,1.58-.76,1.53-.8-.41-.34-.36-.18-.25-.48l.45-1.18c.1-.26.33-.43.61-.46l2.26-.22c.16-.02.28-.03.26-.31l-.08-.71Z"/></g><g id="d"><path class="e" d="m209.16,131.13l-34.06-16.38,5.97-7.02-35.15-42.87-4.97,7.02-34.14-38.88C43.42,97.07,8.57,134.76,2.97,140.61c5.33-4.98,38.38-34.43,98.89-92.6l-2.95,13.01,8,.97-28.85,42.1,42.9-29.15-4.9,28.02,36.92-21.13,19.08,22.93-7.95,14.03,45.04,12.34Z"/></g></svg>